<svg xmlns="http://www.w3.org/2000/svg" version="1.0" viewBox="0 0 512 512">
  <path
    d="M58 179c0 2.7 14.2 136.4 15.5 145.7l.6 4.3h37.8l.6-3.3c.3-1.7 3-25.7 6.1-53.2 3.1-27.5 5.7-50.1 5.8-50.2.1-.1 2.6 23.8 5.6 53.2l5.4 53.5h18.8c10.3 0 18.8-.3 18.8-.8.1-.4 4.1-34.5 8.9-75.7 4.9-41.3 8.7-75.3 8.4-75.8-.2-.4-7.2-.7-15.4-.7-11.1 0-15.1.3-15.4 1.2-.2.7-1.8 24.7-3.5 53.3-1.7 28.6-3.4 54.9-3.8 58.5-.6 5.7-1.4.4-6-41.5-3-26.4-5.6-49.2-5.9-50.8l-.5-2.7H109.1l-.6 4.2c-.3 2.4-3 24.8-6 49.8-3.1 25-5.7 45.9-5.9 46.5-.3.5-.5-.8-.5-3-.2-10.3-4.2-103.7-4.7-109.3l-.6-6.2H58v3zM210.7 176.6c-.4.4-.7 34.9-.7 76.6V329h49.5c27.2 0 49.5-.3 49.5-.8.1-.4.9-6.7 1.9-13.9 1-7.3 1.5-13.5 1.3-13.8-.3-.3-15.1-.5-32.9-.5H247l-.2-61.8-.3-61.7-17.6-.3c-9.6-.1-17.8.1-18.2.4zM366.2 177.7c-1 1.9-46.2 149.3-46.2 150.6 0 .4 8.4.6 18.7.5l18.8-.3 3.9-16.3 3.9-16.2h22.3c20.3 0 22.3.2 22.8 1.7.2 1 1.6 6.7 3.1 12.8 1.4 6 3 12.7 3.6 14.7l1 3.8H437c12.9 0 19-.3 19-1.1s-38.1-126.1-45.1-148.7l-1.1-3.2h-21.3c-19.4 0-21.5.2-22.3 1.7zm37.3 90 .5 2.3h-16.6c-12.9 0-16.5-.3-16.2-1.3.3-.6 4.1-15.8 8.4-33.6l7.9-32.5 7.7 31.5c4.2 17.3 8 32.4 8.3 33.6z"/>
</svg>
