<svg xmlns="http://www.w3.org/2000/svg" width="1365.333" height="1365.333" version="1.0" viewBox="0 0 1024 1024"><path d="M113.8 346.7c.2 2.1 8.8 76.7 19.1 165.8l18.6 162 25.7.3 25.6.2.6-3.7c1.3-8 31.6-258.6 33.1-273.8 2.4-24.2 2.9-25.3 4.4-10.5 1.4 14.8 9.4 86.2 22.6 202.9 5.2 46.5 9.5 84.6 9.5 84.8 0 .2 11.6.3 25.8.3h25.7l19.6-165.8 19.5-165.7-18.4-.3c-10.2-.1-18.6-.1-18.7 0-.6.6-29.6 278.5-30.3 288.8-.7 12.9-1 11.5-4.6-20.8-1.4-12.5-8.9-77.6-16.6-144.7-7.7-67.1-14-122.3-14-122.8 0-.4-9.6-.7-21.3-.7h-21.3l-16.8 133.7c-9.3 73.6-17.4 140-18 147.5-.7 7.6-1.4 14-1.7 14.2-.3.3-1.1-7.8-1.8-17.9-.6-10.2-3.4-40-6.1-66.3-2.6-26.2-8.5-84.5-13.1-129.5l-8.3-81.7h-39.2l.4 3.7zM427 509v166h191v-37H468V343h-41v166zM756.5 344.2c-.8 2.2-84.5 324.4-85.1 327.7l-.7 3.1 20.9-.2 20.9-.3 10.1-41c5.5-22.6 10.4-42.2 10.7-43.8l.7-2.7h100.8l10.8 44 10.8 44h20.9c20.2 0 20.8-.1 20.2-2-.3-1-19.3-74-42.1-162.2-22.8-88.2-41.9-162-42.5-164.1l-1-3.7h-27.5c-21.1 0-27.6.3-27.9 1.2zm35.1 67.8c3.6 16.3 31.9 131.2 34 138.2.5 1.7-1.9 1.8-41.4 1.8h-41.9l15.9-63.8c8.7-35 17.8-73.2 20.3-84.7 6.2-28.9 5.6-27.2 7.2-19 .8 3.8 3.5 16.2 5.9 27.5z"/></svg>